HIERARCHY
ROOT Hips
{
	OFFSET 0.000000 71.427986 0.000000
	CHANNELS 6 Xposition Yposition Zposition Xrotation Yrotation Zrotation
	JOINT Pelvis
	{
		OFFSET 0.000000 0.000000 0.000000
		CHANNELS 3 Xrotation Yrotation Zrotation
		JOINT LeftUpLeg
		{
			OFFSET 6.797100 -2.508499 -1.318700
			CHANNELS 3 Xrotation Yrotation Zrotation
			JOINT LeftLeg
			{
				OFFSET 0.069008 -29.241863 0.690200
				CHANNELS 3 Xrotation Yrotation Zrotation
				JOINT LeftFoot
				{
					OFFSET -0.069008 -29.568123 -0.266800
					CHANNELS 3 Xrotation Yrotation Zrotation
					JOINT LeftToeBase
					{
						OFFSET 3.145500 -8.631000 16.059900
						CHANNELS 3 Xrotation Yrotation Zrotation
						End Site
						{
							OFFSET 0.000000 18.501587 0.000000
						}
					}
				}
			}
			JOINT Left_ShortSleeve
			{
				OFFSET 0.265923 -10.480953 1.153800
				CHANNELS 3 Xrotation Yrotation Zrotation
				End Site
				{
					OFFSET 1.725763 19.823879 0.000000
				}
			}
		}
		JOINT RightUpLeg
		{
			OFFSET -6.797100 -2.508499 -1.318700
			CHANNELS 3 Xrotation Yrotation Zrotation
			JOINT RightLeg
			{
				OFFSET -0.082453 -29.241932 0.688000
				CHANNELS 3 Xrotation Yrotation Zrotation
				JOINT RightFoot
				{
					OFFSET 0.082453 -29.568058 -0.264600
					CHANNELS 3 Xrotation Yrotation Zrotation
					JOINT RightToeBase
					{
						OFFSET -3.115300 -8.682800 16.113400
						CHANNELS 3 Xrotation Yrotation Zrotation
						End Site
						{
							OFFSET 0.000000 18.567114 0.000000
						}
					}
				}
			}
			JOINT Right_ShortSleeve
			{
				OFFSET -0.265923 -10.480953 1.153800
				CHANNELS 3 Xrotation Yrotation Zrotation
				End Site
				{
					OFFSET -1.725766 19.823910 0.000000
				}
			}
		}
	}
	JOINT Spine
	{
		OFFSET 0.000000 13.368103 0.470500
		CHANNELS 3 Xrotation Yrotation Zrotation
		JOINT Spine1
		{
			OFFSET 0.147000 13.837402 0.538800
			CHANNELS 3 Xrotation Yrotation Zrotation
			JOINT Spine2
			{
				OFFSET 0.168000 16.242897 -1.435500
				CHANNELS 3 Xrotation Yrotation Zrotation
				JOINT Neck
				{
					OFFSET 0.217200 18.631500 -1.679100
					CHANNELS 3 Xrotation Yrotation Zrotation
					JOINT Head
					{
						OFFSET 0.000000 6.599396 1.385900
						CHANNELS 3 Xrotation Yrotation Zrotation
						JOINT Hat
						{
							OFFSET -0.532200 27.220596 -10.096100
							CHANNELS 3 Xrotation Yrotation Zrotation
							End Site
							{
								OFFSET 0.000000 22.029861 0.000000
							}
						}
						JOINT HairD
						{
							OFFSET -10.777400 17.437393 -1.325900
							CHANNELS 3 Xrotation Yrotation Zrotation
							JOINT HairD1
							{
								OFFSET -3.290299 -11.051193 1.062200
								CHANNELS 3 Xrotation Yrotation Zrotation
								End Site
								{
									OFFSET 0.000000 11.579437 0.000000
								}
							}
						}
						JOINT HairB
						{
							OFFSET -10.777400 17.437393 1.467900
							CHANNELS 3 Xrotation Yrotation Zrotation
							JOINT HairB1
							{
								OFFSET -1.561200 -12.956299 3.590200
								CHANNELS 3 Xrotation Yrotation Zrotation
								End Site
								{
									OFFSET 0.000000 13.534866 0.000000
								}
							}
						}
						JOINT HairA
						{
							OFFSET 9.713100 17.437393 1.467900
							CHANNELS 3 Xrotation Yrotation Zrotation
							JOINT HairA1
							{
								OFFSET 1.561200 -12.956299 3.590200
								CHANNELS 3 Xrotation Yrotation Zrotation
								End Site
								{
									OFFSET 0.000000 13.534866 0.000000
								}
							}
						}
						JOINT HairC
						{
							OFFSET 9.713100 17.437393 -1.325900
							CHANNELS 3 Xrotation Yrotation Zrotation
							JOINT HairC1
							{
								OFFSET 3.290300 -11.051193 1.062200
								CHANNELS 3 Xrotation Yrotation Zrotation
								End Site
								{
									OFFSET 0.000000 11.579437 0.000000
								}
							}
						}
					}
				}
				JOINT LeftShoulder
				{
					OFFSET 5.101800 15.108002 -2.763700
					CHANNELS 3 Xrotation Yrotation Zrotation
					JOINT LeftArm
					{
						OFFSET 9.825497 2.506317 -1.597400
						CHANNELS 3 Xrotation Yrotation Zrotation
						JOINT LeftForeArm
						{
							OFFSET 21.966244 0.000000 0.000000
							CHANNELS 3 Xrotation Yrotation Zrotation
							JOINT LeftHand
							{
								OFFSET 33.879036 0.000000 0.000000
								CHANNELS 3 Xrotation Yrotation Zrotation
								JOINT LeftHandThumb1
								{
									OFFSET 6.715286 -2.359680 3.363841
									CHANNELS 3 Xrotation Yrotation Zrotation
									JOINT LeftHandThumb2
									{
										OFFSET 2.507072 -1.447464 1.447461
										CHANNELS 3 Xrotation Yrotation Zrotation
										JOINT LeftHandThumb3
										{
											OFFSET 2.898338 -1.673355 1.673357
											CHANNELS 3 Xrotation Yrotation Zrotation
											End Site
											{
												OFFSET -0.295959 3.727692 -0.131651
											}
										}
									}
								}
								JOINT LeftHandIndex1
								{
									OFFSET 14.190811 -0.254547 3.840278
									CHANNELS 3 Xrotation Yrotation Zrotation
									JOINT LeftHandIndex2
									{
										OFFSET 3.551727 0.000000 -0.000000
										CHANNELS 3 Xrotation Yrotation Zrotation
										JOINT LeftHandIndex3
										{
											OFFSET 2.894196 0.000000 0.000000
											CHANNELS 3 Xrotation Yrotation Zrotation
											End Site
											{
												OFFSET -1.000603 2.690872 0.366626
											}
										}
									}
								}
								JOINT LeftHandMiddle1
								{
									OFFSET 13.776489 0.000000 0.000000
									CHANNELS 3 Xrotation Yrotation Zrotation
									JOINT LeftHandMiddle2
									{
										OFFSET 3.438232 0.000000 0.000000
										CHANNELS 3 Xrotation Yrotation Zrotation
										JOINT LeftHandMiddle3
										{
											OFFSET 3.691551 0.000000 0.000000
											CHANNELS 3 Xrotation Yrotation Zrotation
											End Site
											{
												OFFSET -1.082298 3.499527 0.457670
											}
										}
									}
								}
								JOINT LeftHandRing1
								{
									OFFSET 13.966164 -0.268127 -3.067488
									CHANNELS 3 Xrotation Yrotation Zrotation
									JOINT LeftHandRing2
									{
										OFFSET 3.162567 0.000000 0.000000
										CHANNELS 3 Xrotation Yrotation Zrotation
										JOINT LeftHandRing3
										{
											OFFSET 3.324348 0.000000 0.000000
											CHANNELS 3 Xrotation Yrotation Zrotation
											End Site
											{
												OFFSET -0.861900 3.184998 0.405154
											}
										}
									}
								}
								JOINT LeftHandPinky1
								{
									OFFSET 13.131393 -0.168503 -5.746925
									CHANNELS 3 Xrotation Yrotation Zrotation
									JOINT LeftHandPinky2
									{
										OFFSET 2.849182 0.000000 0.000000
										CHANNELS 3 Xrotation Yrotation Zrotation
										JOINT LeftHandPinky3
										{
											OFFSET 2.805038 0.000000 0.000000
											CHANNELS 3 Xrotation Yrotation Zrotation
											End Site
											{
												OFFSET -0.882500 2.642609 0.325652
											}
										}
									}
								}
							}
							JOINT Left_Sleeve
							{
								OFFSET 6.592125 -0.646545 0.805568
								CHANNELS 3 Xrotation Yrotation Zrotation
								End Site
								{
									OFFSET -0.000179 20.275787 -0.000000
								}
							}
						}
					}
				}
				JOINT RightShoulder
				{
					OFFSET -5.731700 15.108002 -2.763700
					CHANNELS 3 Xrotation Yrotation Zrotation
					JOINT RightArm
					{
						OFFSET -9.825497 2.506317 -1.597400
						CHANNELS 3 Xrotation Yrotation Zrotation
						JOINT RightForeArm
						{
							OFFSET -21.966242 0.000000 0.000000
							CHANNELS 3 Xrotation Yrotation Zrotation
							JOINT RightHand
							{
								OFFSET -33.879032 0.000000 0.000000
								CHANNELS 3 Xrotation Yrotation Zrotation
								JOINT RightHandThumb1
								{
									OFFSET -6.715286 -2.359680 3.363841
									CHANNELS 3 Xrotation Yrotation Zrotation
									JOINT RightHandThumb2
									{
										OFFSET -2.507072 -1.447464 1.447461
										CHANNELS 3 Xrotation Yrotation Zrotation
										JOINT RightHandThumb3
										{
											OFFSET -2.898338 -1.673355 1.673357
											CHANNELS 3 Xrotation Yrotation Zrotation
											End Site
											{
												OFFSET 0.295959 3.727692 -0.131651
											}
										}
									}
								}
								JOINT RightHandIndex1
								{
									OFFSET -14.190811 -0.254547 3.840278
									CHANNELS 3 Xrotation Yrotation Zrotation
									JOINT RightHandIndex2
									{
										OFFSET -3.551727 0.000000 -0.000000
										CHANNELS 3 Xrotation Yrotation Zrotation
										JOINT RightHandIndex3
										{
											OFFSET -2.894196 0.000000 0.000000
											CHANNELS 3 Xrotation Yrotation Zrotation
											End Site
											{
												OFFSET 1.000603 2.690872 0.366626
											}
										}
									}
								}
								JOINT RightHandMiddle1
								{
									OFFSET -13.776489 0.000000 0.000000
									CHANNELS 3 Xrotation Yrotation Zrotation
									JOINT RightHandMiddle2
									{
										OFFSET -3.438232 0.000000 0.000000
										CHANNELS 3 Xrotation Yrotation Zrotation
										JOINT RightHandMiddle3
										{
											OFFSET -3.691551 0.000000 0.000000
											CHANNELS 3 Xrotation Yrotation Zrotation
											End Site
											{
												OFFSET 1.082298 3.499527 0.457670
											}
										}
									}
								}
								JOINT RightHandRing1
								{
									OFFSET -13.966164 -0.268127 -3.067488
									CHANNELS 3 Xrotation Yrotation Zrotation
									JOINT RightHandRing2
									{
										OFFSET -3.162567 0.000000 0.000000
										CHANNELS 3 Xrotation Yrotation Zrotation
										JOINT RightHandRing3
										{
											OFFSET -3.324348 0.000000 0.000000
											CHANNELS 3 Xrotation Yrotation Zrotation
											End Site
											{
												OFFSET 0.861900 3.184998 0.405154
											}
										}
									}
								}
								JOINT RightHandPinky1
								{
									OFFSET -13.131393 -0.168503 -5.746925
									CHANNELS 3 Xrotation Yrotation Zrotation
									JOINT RightHandPinky2
									{
										OFFSET -2.849182 0.000000 0.000000
										CHANNELS 3 Xrotation Yrotation Zrotation
										JOINT RightHandPinky3
										{
											OFFSET -2.805038 0.000000 0.000000
											CHANNELS 3 Xrotation Yrotation Zrotation
											End Site
											{
												OFFSET 0.882500 2.642609 0.325652
											}
										}
									}
								}
							}
							JOINT Right_Sleeve
							{
								OFFSET -6.592125 -0.646545 0.805568
								CHANNELS 3 Xrotation Yrotation Zrotation
								End Site
								{
									OFFSET 0.000179 20.275787 -0.000000
								}
							}
						}
					}
				}
				JOINT Bind_Right_JacketString
				{
					OFFSET -3.534800 11.969597 7.200700
					CHANNELS 3 Xrotation Yrotation Zrotation
					JOINT Bind_Right_JacketString1
					{
						OFFSET -0.319900 -6.102600 2.794100
						CHANNELS 3 Xrotation Yrotation Zrotation
						End Site
						{
							OFFSET 0.000000 6.719452 0.000000
						}
					}
				}
				JOINT Bind_Left_JacketString
				{
					OFFSET 2.904800 11.969597 7.200700
					CHANNELS 3 Xrotation Yrotation Zrotation
					JOINT Bind_Left_JacketString1
					{
						OFFSET 0.364800 -5.904503 3.186800
						CHANNELS 3 Xrotation Yrotation Zrotation
						End Site
						{
							OFFSET 0.000000 6.719513 0.000000
						}
					}
				}
				JOINT HairE
				{
					OFFSET 5.915200 17.612701 -11.592200
					CHANNELS 3 Xrotation Yrotation Zrotation
					JOINT HairE1
					{
						OFFSET 0.289200 -7.171898 -1.284500
						CHANNELS 3 Xrotation Yrotation Zrotation
						End Site
						{
							OFFSET 0.000000 7.291756 0.000000
						}
					}
				}
				JOINT HairF
				{
					OFFSET -0.864800 17.612701 -11.592200
					CHANNELS 3 Xrotation Yrotation Zrotation
					JOINT HairF1
					{
						OFFSET 0.000000 -14.087097 -2.127501
						CHANNELS 3 Xrotation Yrotation Zrotation
						End Site
						{
							OFFSET 0.000000 14.246841 0.000000
						}
					}
				}
				JOINT HairG
				{
					OFFSET -8.087700 17.612701 -11.592200
					CHANNELS 3 Xrotation Yrotation Zrotation
					JOINT HairG1
					{
						OFFSET -0.293600 -6.081398 -0.910100
						CHANNELS 3 Xrotation Yrotation Zrotation
						End Site
						{
							OFFSET 0.000000 6.156120 0.000000
						}
					}
				}
			}
		}
	}
	JOINT Pouch
	{
		OFFSET 0.000000 4.394501 10.847300
		CHANNELS 3 Xrotation Yrotation Zrotation
		End Site
		{
			OFFSET 0.000000 21.880577 0.000000
		}
	}
	JOINT Bag
	{
		OFFSET -13.229000 4.813004 -0.593300
		CHANNELS 3 Xrotation Yrotation Zrotation
		End Site
		{
			OFFSET 0.000000 21.880577 0.000000
		}
	}
	JOINT OccupyGuyFacialAnim_Joint
	{
		OFFSET 1.000000 -70.206398 -1.655000
		CHANNELS 3 Xrotation Yrotation Zrotation
		End Site
		{
			OFFSET 0.000000 21.880577 0.000000
		}
	}
}
MOTION
Frames: 5
Frame Time: 0.033333
0.117947 65.665413 113.683815 24.361138 24.994980 -18.199094 -0.000000 -0.000001 -0.000000 -41.671934 -7.654532 0.614091 75.787246 3.945372 0.890367 2.021258 3.845362 0.211054 -0.000003 -0.000000 0.000000 -0.000000 0.000001 0.000000 -43.377005 -13.696651 -1.639687 42.992240 -2.228554 1.883202 -20.715892 -1.119873 3.708213 -0.000000 0.000001 0.000000 0.000003 -0.000000 -0.000000 8.786726 1.359287 1.737225 -0.540562 1.037983 -0.381410 -0.511368 1.181424 -0.411521 -12.161851 0.648619 0.699223 -13.231898 5.415884 -5.053045 0.000000 -0.000001 0.000000 0.000000 -0.000001 0.000000 0.000000 -0.000001 0.000000 0.000000 -0.000001 0.000001 -0.000000 0.000001 0.000000 0.000000 -0.000001 0.000001 -0.000000 0.000001 0.000000 0.000000 -0.000001 0.000000 0.000000 -0.000001 0.000000 0.837432 -1.055312 -19.528902 15.499931 -0.234860 -50.871625 0.000001 -65.123012 0.000006 -23.282249 10.034484 -19.303650 74.823992 -40.508052 61.030233 25.053177 4.288302 -82.257314 0.000001 0.000002 -0.000002 6.045489 7.911879 -79.202034 5.378966 5.832034 -85.364135 -0.000003 0.000001 -0.000002 4.936442 8.203008 -90.206001 4.700911 5.737290 -78.644205 0.000004 -0.000001 0.000001 4.381793 8.240857 -91.462995 5.827599 5.851035 -89.769818 -0.000001 0.000002 -0.000001 5.265752 8.406004 -100.082311 2.611090 4.874713 -56.329933 -0.000003 0.000000 0.000001 -0.000000 0.000001 0.000000 0.313810 6.804143 18.524047 13.178148 -8.522127 48.624363 -0.000048 62.043021 0.000063 -1.533633 -15.452007 8.573831 47.809736 35.835342 -5.333798 34.631357 -33.014481 35.094618 -0.000004 -0.000001 0.000000 5.683870 -7.148483 80.840466 4.349997 -4.647016 86.214220 -0.000001 -0.000003 0.000001 7.521034 -6.697650 95.220992 4.361747 -4.647790 86.359218 0.000003 -0.000000 0.000001 5.633520 -6.839588 101.454803 3.624427 -4.541458 77.174096 -0.000002 0.000001 -0.000001 5.334901 -6.890735 98.904643 1.717993 -3.614126 50.837122 -0.000002 0.000003 0.000003 0.000002 0.000001 -0.000001 -0.000000 0.000001 0.000000 -0.000000 -0.000003 0.000001 -0.000000 0.000001 -0.000000 -0.000000 0.000001 -0.000000 -0.000000 0.000001 0.000000 -0.000000 -0.000003 0.000002 -0.000000 0.000001 -0.000000 -0.000000 0.000001 -0.000000 -0.000000 0.000001 0.000000 -0.000000 -0.000003 0.000002 -0.000000 -0.000001 -0.000000 -0.000000 -0.000001 -0.000000 -0.000000 -0.000001 -0.000000 
0.972555 66.222389 117.088562 24.741643 25.149605 -18.250747 0.000000 -0.000000 -0.000000 -48.130383 -3.438633 -0.700305 75.601260 0.438413 2.301095 -0.464885 2.360018 3.938138 -0.000001 -0.000000 -0.000001 0.000001 0.000000 -0.000001 -38.304001 -12.884044 -0.295355 39.915728 -2.992594 2.305700 -22.873284 -1.357929 3.725435 0.000000 -0.000000 -0.000000 0.000001 -0.000002 -0.000000 8.910941 2.309070 1.101829 -0.513520 1.202044 -0.605949 -0.498271 1.263209 -0.617156 -12.160983 0.641294 0.820514 -13.188026 5.396630 -4.993330 0.000000 -0.000002 -0.000000 0.000000 -0.000002 -0.000000 0.000000 -0.000002 -0.000000 0.000000 -0.000002 0.000001 -0.000000 -0.000001 -0.000000 0.000000 -0.000002 0.000001 -0.000000 -0.000001 -0.000000 0.000000 -0.000002 -0.000000 0.000000 -0.000002 -0.000000 0.811086 -1.052991 -19.696324 14.624422 -1.242339 -49.279992 -0.000007 -65.152020 -0.000008 -23.483623 11.555965 -19.445187 74.823992 -40.508052 61.030233 25.075673 4.284684 -82.269991 0.000003 0.000001 -0.000001 5.941144 7.895671 -79.012769 5.392928 5.833154 -85.501667 -0.000002 0.000001 -0.000002 4.934763 8.202727 -90.189492 4.700909 5.737271 -78.644232 -0.000001 -0.000001 0.000000 4.392494 8.243621 -91.567060 5.845028 5.851076 -89.940710 -0.000001 0.000001 -0.000002 5.285361 8.408073 -100.267922 2.574044 4.849927 -55.892982 -0.000003 -0.000002 0.000004 0.000001 0.000000 -0.000000 0.263382 7.371295 19.184227 12.410561 -8.968388 48.406210 -0.000036 62.338003 0.000034 -1.992567 -15.853071 8.198213 47.809733 35.835342 -5.333803 34.631361 -33.014481 35.094618 0.000001 0.000003 -0.000001 5.430919 -7.134306 79.850587 4.385760 -4.649261 86.655512 0.000000 -0.000001 -0.000002 7.511475 -6.710348 94.938400 4.364294 -4.647978 86.390514 0.000007 0.000002 -0.000002 5.657983 -6.834595 101.762135 3.631229 -4.543009 77.259897 -0.000002 -0.000000 -0.000002 5.354864 -6.888000 99.152770 1.712531 -3.609684 50.750385 -0.000000 0.000003 0.000001 0.000002 0.000001 -0.000001 -0.000003 -0.000002 0.000000 -0.000002 -0.000002 0.000000 -0.000003 -0.000002 -0.000000 -0.000003 -0.000002 -0.000000 -0.000003 -0.000002 0.000000 -0.000002 -0.000002 0.000000 -0.000003 -0.000002 -0.000000 -0.000003 -0.000002 -0.000000 -0.000003 -0.000002 0.000000 -0.000002 -0.000002 0.000000 0.000000 -0.000000 -0.000000 0.000000 -0.000000 -0.000000 0.000000 -0.000000 -0.000000 
1.794779 66.557205 120.456902 25.233051 25.235918 -18.266055 -0.000000 -0.000001 -0.000000 -52.583724 0.009458 -1.884748 73.872580 -2.712716 3.303053 -3.336425 1.431383 7.999743 -0.000001 -0.000000 0.000000 -0.000001 -0.000003 -0.000001 -33.413098 -12.092515 0.910485 36.633149 -3.633737 2.691957 -24.816572 -1.365099 3.632511 0.000000 -0.000001 -0.000000 0.000001 0.000001 0.000000 8.950762 2.984839 0.443943 -0.486208 1.376171 -0.738722 -0.484349 1.393133 -0.754875 -12.183781 0.616438 0.895271 -13.199666 5.324010 -4.930521 0.000001 -0.000001 -0.000000 0.000001 -0.000001 -0.000000 0.000001 -0.000001 0.000000 0.000001 -0.000001 0.000001 0.000000 -0.000001 0.000001 0.000001 -0.000001 0.000001 0.000000 -0.000001 0.000001 0.000001 -0.000001 -0.000000 0.000001 -0.000001 -0.000000 0.800995 -1.050758 -19.763330 13.552889 -1.213097 -48.473019 0.000029 -65.396855 0.000022 -23.458481 12.668239 -19.629199 74.823992 -40.508052 61.030240 25.114396 4.278461 -82.291820 -0.000002 -0.000001 -0.000005 5.834363 7.878523 -78.812877 5.407291 5.834255 -85.642847 -0.000002 -0.000001 -0.000002 4.932103 8.202279 -90.163353 4.700915 5.737275 -78.644219 -0.000003 -0.000001 -0.000001 4.402377 8.246150 -91.663181 5.862435 5.851075 -90.111512 0.000004 -0.000001 -0.000001 5.304529 8.410031 -100.449256 2.535403 4.823628 -55.434632 0.000001 0.000000 0.000001 -0.000003 -0.000001 -0.000001 0.203546 7.873812 19.585059 11.893557 -9.449222 48.231616 -0.000041 63.146984 0.000057 -2.319522 -16.349521 7.973168 47.809736 35.835342 -5.333805 34.631364 -33.014481 35.094622 0.000002 0.000001 -0.000000 5.182538 -7.113303 78.876247 4.422135 -4.651222 87.104043 -0.000001 -0.000003 0.000003 7.506156 -6.722326 94.665063 4.366854 -4.648118 86.421953 0.000001 0.000001 0.000001 5.682769 -6.829399 102.073851 3.638045 -4.544544 77.346244 0.000001 0.000000 -0.000002 5.375709 -6.885055 99.411867 1.706935 -3.605126 50.661323 -0.000000 -0.000001 0.000000 -0.000001 0.000001 -0.000001 -0.000002 -0.000001 -0.000000 -0.000001 0.000001 -0.000003 -0.000002 -0.000001 0.000001 -0.000002 -0.000001 0.000001 -0.000002 -0.000001 -0.000000 -0.000001 0.000001 -0.000003 -0.000002 -0.000001 0.000001 -0.000002 -0.000001 0.000001 -0.000002 -0.000001 -0.000000 -0.000001 0.000001 -0.000003 -0.000000 -0.000001 -0.000000 -0.000000 -0.000001 -0.000000 -0.000000 -0.000001 -0.000000 
1.794779 66.557205 120.456902 25.233051 25.235918 -18.266055 -0.000000 -0.000001 -0.000000 -52.583724 0.009458 -1.884748 73.872580 -2.712716 3.303053 -3.336425 1.431383 7.999743 -0.000001 -0.000000 0.000000 -0.000001 -0.000003 -0.000001 -33.413098 -12.092515 0.910485 36.633149 -3.633737 2.691957 -24.816572 -1.365099 3.632511 0.000000 -0.000001 -0.000000 0.000001 0.000001 0.000000 8.950762 2.984839 0.443943 -0.486208 1.376171 -0.738722 -0.484349 1.393133 -0.754875 -12.183781 0.616438 0.895271 -13.199666 5.324010 -4.930521 0.000001 -0.000001 -0.000000 0.000001 -0.000001 -0.000000 0.000001 -0.000001 0.000000 0.000001 -0.000001 0.000001 0.000000 -0.000001 0.000001 0.000001 -0.000001 0.000001 0.000000 -0.000001 0.000001 0.000001 -0.000001 -0.000000 0.000001 -0.000001 -0.000000 0.800995 -1.050758 -19.763330 13.552889 -1.213097 -48.473019 0.000029 -65.396855 0.000022 -23.458481 12.668239 -19.629199 74.823992 -40.508052 61.030240 25.114396 4.278461 -82.291820 -0.000002 -0.000001 -0.000005 5.834363 7.878523 -78.812877 5.407291 5.834255 -85.642847 -0.000002 -0.000001 -0.000002 4.932103 8.202279 -90.163353 4.700915 5.737275 -78.644219 -0.000003 -0.000001 -0.000001 4.402377 8.246150 -91.663181 5.862435 5.851075 -90.111512 0.000004 -0.000001 -0.000001 5.304529 8.410031 -100.449256 2.535403 4.823628 -55.434632 0.000001 0.000000 0.000001 -0.000003 -0.000001 -0.000001 0.203546 7.873812 19.585059 11.893557 -9.449222 48.231616 -0.000041 63.146984 0.000057 -2.319522 -16.349521 7.973168 47.809736 35.835342 -5.333805 34.631364 -33.014481 35.094622 0.000002 0.000001 -0.000000 5.182538 -7.113303 78.876247 4.422135 -4.651222 87.104043 -0.000001 -0.000003 0.000003 7.506156 -6.722326 94.665063 4.366854 -4.648118 86.421953 0.000001 0.000001 0.000001 5.682769 -6.829399 102.073851 3.638045 -4.544544 77.346244 0.000001 0.000000 -0.000002 5.375709 -6.885055 99.411867 1.706935 -3.605126 50.661323 -0.000000 -0.000001 0.000000 -0.000001 0.000001 -0.000001 -0.000002 -0.000001 -0.000000 -0.000001 0.000001 -0.000003 -0.000002 -0.000001 0.000001 -0.000002 -0.000001 0.000001 -0.000002 -0.000001 -0.000000 -0.000001 0.000001 -0.000003 -0.000002 -0.000001 0.000001 -0.000002 -0.000001 0.000001 -0.000002 -0.000001 -0.000000 -0.000001 0.000001 -0.000003 -0.000000 -0.000001 -0.000000 -0.000000 -0.000001 -0.000000 -0.000000 -0.000001 -0.000000 
1.794779 66.557205 120.456902 25.233051 25.235918 -18.266055 -0.000000 -0.000001 -0.000000 -52.583724 0.009458 -1.884748 73.872580 -2.712716 3.303053 -3.336425 1.431383 7.999743 -0.000001 -0.000000 0.000000 -0.000001 -0.000003 -0.000001 -33.413098 -12.092515 0.910485 36.633149 -3.633737 2.691957 -24.816572 -1.365099 3.632511 0.000000 -0.000001 -0.000000 0.000001 0.000001 0.000000 8.950762 2.984839 0.443943 -0.486208 1.376171 -0.738722 -0.484349 1.393133 -0.754875 -12.183781 0.616438 0.895271 -13.199666 5.324010 -4.930521 0.000001 -0.000001 -0.000000 0.000001 -0.000001 -0.000000 0.000001 -0.000001 0.000000 0.000001 -0.000001 0.000001 0.000000 -0.000001 0.000001 0.000001 -0.000001 0.000001 0.000000 -0.000001 0.000001 0.000001 -0.000001 -0.000000 0.000001 -0.000001 -0.000000 0.800995 -1.050758 -19.763330 13.552889 -1.213097 -48.473019 0.000029 -65.396855 0.000022 -23.458481 12.668239 -19.629199 74.823992 -40.508052 61.030240 25.114396 4.278461 -82.291820 -0.000002 -0.000001 -0.000005 5.834363 7.878523 -78.812877 5.407291 5.834255 -85.642847 -0.000002 -0.000001 -0.000002 4.932103 8.202279 -90.163353 4.700915 5.737275 -78.644219 -0.000003 -0.000001 -0.000001 4.402377 8.246150 -91.663181 5.862435 5.851075 -90.111512 0.000004 -0.000001 -0.000001 5.304529 8.410031 -100.449256 2.535403 4.823628 -55.434632 0.000001 0.000000 0.000001 -0.000003 -0.000001 -0.000001 0.203546 7.873812 19.585059 11.893557 -9.449222 48.231616 -0.000041 63.146984 0.000057 -2.319522 -16.349521 7.973168 47.809736 35.835342 -5.333805 34.631364 -33.014481 35.094622 0.000002 0.000001 -0.000000 5.182538 -7.113303 78.876247 4.422135 -4.651222 87.104043 -0.000001 -0.000003 0.000003 7.506156 -6.722326 94.665063 4.366854 -4.648118 86.421953 0.000001 0.000001 0.000001 5.682769 -6.829399 102.073851 3.638045 -4.544544 77.346244 0.000001 0.000000 -0.000002 5.375709 -6.885055 99.411867 1.706935 -3.605126 50.661323 -0.000000 -0.000001 0.000000 -0.000001 0.000001 -0.000001 -0.000002 -0.000001 -0.000000 -0.000001 0.000001 -0.000003 -0.000002 -0.000001 0.000001 -0.000002 -0.000001 0.000001 -0.000002 -0.000001 -0.000000 -0.000001 0.000001 -0.000003 -0.000002 -0.000001 0.000001 -0.000002 -0.000001 0.000001 -0.000002 -0.000001 -0.000000 -0.000001 0.000001 -0.000003 -0.000000 -0.000001 -0.000000 -0.000000 -0.000001 -0.000000 -0.000000 -0.000001 -0.000000 
